<?xml version="1.0" encoding="utf-8"?>
<!-- Generator: Adobe Illustrator 28.0.0, SVG Export Plug-In . SVG Version: 6.00 Build 0)  -->
<svg version="1.1" id="background" xmlns="http://www.w3.org/2000/svg" xmlns:xlink="http://www.w3.org/1999/xlink" x="0px" y="0px"
	 viewBox="0 0 307.4 305.12" style="enable-background:new 0 0 307.4 305.12;" xml:space="preserve">
<style type="text/css">
	
		.st0{opacity:0.96;clip-path:url(#SVGID_00000076561816892211799770000005754248962147204281_);fill:#00793E;stroke:#000000;stroke-miterlimit:10;}
	.st1{fill:#F6F6CB;stroke:#000000;stroke-miterlimit:10;}
	.st2{stroke:#000000;stroke-miterlimit:10;}
	.st3{fill:none;stroke:#000000;stroke-miterlimit:10;}
	.st4{fill:#F8F4B0;stroke:#000000;stroke-miterlimit:10;}
	.st5{fill:#2F0900;stroke:#000000;stroke-miterlimit:10;}
	.st6{fill:#E16C80;stroke:#000000;stroke-miterlimit:10;}
</style>
<g id="Layer_2">
</g>
<g>
	<defs>
		<circle id="SVGID_1_" cx="153.94" cy="153.52" r="150"/>
	</defs>
	<use xlink:href="#SVGID_1_"  style="overflow:visible;fill:#747A7C;"/>
	<clipPath id="SVGID_00000008849915939239321860000017275525844920819099_">
		<use xlink:href="#SVGID_1_"  style="overflow:visible;"/>
	</clipPath>
	
		<path style="opacity:0.96;clip-path:url(#SVGID_00000008849915939239321860000017275525844920819099_);fill:#00793E;stroke:#000000;stroke-miterlimit:10;" d="
		M7.71,311.52c6.81-11.78,61.16-102.65,152.54-101.94c84.04,0.65,135.54,78.24,143.68,90.92"/>
	<use xlink:href="#SVGID_1_"  style="overflow:visible;fill:none;stroke:#000000;stroke-miterlimit:10;"/>
</g>
<path class="st1" d="M210.03,150.04c-0.68,4.25-1.22,7.35-3.83,9.96c-3.67,3.65-10.54,5.43-15.32,2.3
	c-6.86-4.5-3.98-15.55-3.83-16.09c2.87-10.4,15.52-17.6,20.68-14.55C212.51,134.48,210.68,145.98,210.03,150.04z"/>
<path class="st1" d="M92.63,226.67c0.67-10.14,39.45-15.28,53.22-16.44c20.09-1.69,34.7,1.06,45.13,3.1
	c17.56,3.44,27.43,5.38,28.11,9.9c1.28,8.53-30.39,25.08-63.08,25.87C124.66,249.86,92,236.15,92.63,226.67z"/>
<path class="st1" d="M131.49,225.36c2.15-7.47,4.76-19.21,4.6-33.7c-0.17-14.69-3.05-19.96,0.77-26.04
	c7.54-12.02,33.35-14.57,42.13-4.6c5.08,5.77,1.52,12.4,3.06,29.87c1.19,13.55,4.65,24.55,7.66,32.17"/>
<path class="st1" d="M102.6,145.51c0-1.21,0.1-6.24,3.83-9.96c3.67-3.65,10.54-5.43,15.32-2.3c3.46,2.27,3.53,6.96,3.83,16.09
	c0.34,10.35,0.53,15.79-2.32,17.25C117.96,169.31,102.59,157.91,102.6,145.51z"/>
<path class="st1" d="M161.01,192.94c-17.12,2.72-34.59-7.29-41.36-20.68c-3.29-6.51-3.21-14.04-3.06-29.11
	c0.03-3.1-0.36-7.51,0.27-13.2c0.63-5.76,1.93-11.41,2.8-13.61c6.2-15.74,57.29-25.72,74.3-3.06c6.18,8.23,6.15,18.53,6.13,26.04
	c-0.01,4.86-0.3,21.3-12.26,36C183.72,180.36,175.35,190.66,161.01,192.94z"/>
<path class="st1" d="M137.1,164.93c0.56,0.93,6.09,9.79,16.85,10.72c8.21,0.71,16.24-3.46,20.68-10.72"/>
<ellipse class="st2" cx="138.38" cy="135.89" rx="1.53" ry="4.93"/>
<ellipse class="st2" cx="174.64" cy="134.04" rx="1.53" ry="4.93"/>
<path class="st3" d="M154.79,144.31c-0.2,3.77-0.46,6.29-0.77,8.04c-0.07,0.4-0.24,1.36,0.26,1.79c0.43,0.37,1.11,0.11,2.55-0.13
	c1.06-0.17,1.95-0.23,2.55-0.26"/>
<path class="st3" d="M203.39,136.73c1.09,1.44,3.72,5.36,3.32,10.47c-0.39,5.01-3.58,9.78-4.98,9.45c-1.26-0.3-1.18-4.83-1.15-6.64
	c0.05-2.81,0.59-6.73,1.4-6.77c0.61-0.03,1.23,2.16,1.4,3.57c0.2,1.66-0.12,3.03-0.38,3.83"/>
<path class="st3" d="M113.55,136.95c-1.09,0.19-3.92,0.88-5.27,3.7c-1.17,2.45-0.55,5.13,0.61,10.21c0.76,3.34,1.53,6.71,2.73,6.77
	c1.27,0.06,2.31-3.62,2.63-5.11c0.71-3.3,0.05-6.01-0.3-7.4c-0.28-1.08-0.89-3.48-1.62-3.45c-0.78,0.04-1.39,2.84-1.52,4.72
	c-0.04,0.67,0.11,2.11,0.41,4.98c0.15,1.46,0.22,1.86,0.41,1.91c0.46,0.14,1.39-1.77,1.62-3.7c0.13-1.11,0.02-2.06-0.1-2.68"/>
<path class="st4" d="M109.11,114.21"/>
<path class="st5" d="M116.86,130.93c1.32-0.39-0.99-5.07,1.51-10.19c2.72-5.56,9.29-7.9,16.02-10.3c3.27-1.17,5.74-1.7,9.7-2.55
	c4.23-0.91,8.94-1.9,15.15-2.04c3.39-0.08,6.35-0.14,10.21,0.68c2.09,0.45,2.07,0.64,7.32,2.04c5.29,1.41,5.68,1.31,7.15,2.04
	c2.76,1.39,2.63,2.39,6.3,5.45c5.25,4.37,6.95,3.52,8.64,6.39c2.3,3.92,0.59,7.96,1.96,8.39c1.28,0.4,3.59-2.86,4.71-5.59
	c0.42-1.02,2.16-5.43,0.51-10.21c-0.98-2.85-2.45-3.74-8.17-8.85c-9.21-8.22-8.66-8.81-13.28-11.91c-2.6-1.75-5.77-3.88-10.38-5.62
	c-3.61-1.36-5.14-1.35-10.04-3.4c-2.21-0.92-3.07-1.41-4.94-1.87c-2.91-0.72-3.92-0.29-7.66-0.51c-6.34-0.38-8.89-1.93-10.04-0.51
	c-1.08,1.33,0.44,3.58-0.51,4.26c-1.45,1.04-5.65-3.82-7.49-2.72c-1.47,0.88,0.27,4.58-1.53,5.96c-1.5,1.15-3.54-0.79-6.17,0.13
	c-1.93,0.68-2.69,2.38-3.87,4.29c-4.01,6.47-6.86,5.68-9.7,10.72c-2.75,4.87-2.49,9.86-2.38,11.57
	C110.39,124.47,115.21,131.42,116.86,130.93z"/>
<ellipse class="st6" cx="132.23" cy="156.66" rx="3.09" ry="5"/>
<ellipse class="st6" cx="181.87" cy="156.66" rx="3.09" ry="5"/>
</svg>
